<svg width="42" height="42" viewBox="0 0 42 42" fill="none" xmlns="http://www.w3.org/2000/svg">
<g filter="url(#filter0_d_2_954)">
<path fill-rule="evenodd" clip-rule="evenodd" d="M21.1078 8.98608C14.2999 8.98608 8.78101 14.505 8.78101 21.3129C8.78101 28.1208 14.2999 33.6396 21.1078 33.6396C27.9157 33.6396 33.4346 28.1208 33.4346 21.3129C33.4346 14.505 27.9157 8.98608 21.1078 8.98608ZM18.7205 25.9661C18.33 26.3566 18.33 26.9898 18.7205 27.3803C19.111 27.7708 19.7442 27.7708 20.1347 27.3803L26.0607 21.4543C26.1389 21.3762 26.1389 21.2495 26.0607 21.1714L20.1347 15.2454C19.7442 14.8549 19.111 14.8549 18.7205 15.2454C18.33 15.6359 18.33 16.2691 18.7205 16.6596L23.2323 21.1714C23.3104 21.2495 23.3104 21.3762 23.2323 21.4543L18.7205 25.9661Z" fill="white"/>
</g>
<defs>
<filter id="filter0_d_2_954" x="0.781006" y="0.986084" width="40.6536" height="40.6536" filterUnits="userSpaceOnUse" color-interpolation-filters="sRGB">
<feFlood flood-opacity="0" result="BackgroundImageFix"/>
<feColorMatrix in="SourceAlpha" type="matrix" values="0 0 0 0 0 0 0 0 0 0 0 0 0 0 0 0 0 0 127 0" result="hardAlpha"/>
<feOffset/>
<feGaussianBlur stdDeviation="4"/>
<feComposite in2="hardAlpha" operator="out"/>
<feColorMatrix type="matrix" values="0 0 0 0 0 0 0 0 0 0 0 0 0 0 0 0 0 0 0.3 0"/>
<feBlend mode="normal" in2="BackgroundImageFix" result="effect1_dropShadow_2_954"/>
<feBlend mode="normal" in="SourceGraphic" in2="effect1_dropShadow_2_954" result="shape"/>
</filter>
</defs>
</svg>
