<svg width="23" height="23" viewBox="0 0 23 23" fill="none" xmlns="http://www.w3.org/2000/svg">
<g clip-path="url(#clip0_2_969)">
<path fill-rule="evenodd" clip-rule="evenodd" d="M11.5908 0.5C5.54082 0.5 0.59082 5.45 0.59082 11.5C0.59082 17.55 5.54082 22.5 11.5908 22.5C17.6408 22.5 22.5908 17.55 22.5908 11.5C22.5908 5.45 17.6408 0.5 11.5908 0.5ZM11.5908 21.125C6.27415 21.125 1.96582 16.8167 1.96582 11.5C1.96582 6.18333 6.27415 1.875 11.5908 1.875C16.9075 1.875 21.2158 6.18333 21.2158 11.5C21.2158 16.8167 16.9075 21.125 11.5908 21.125ZM16.2658 5.90833L9.48249 9.11667C9.34499 9.1625 9.20749 9.3 9.16165 9.4375L5.95332 16.2208C5.81582 16.4958 5.86165 16.8167 6.09082 17C6.22832 17.1375 6.41165 17.1833 6.59499 17.1833C6.68665 17.1833 6.77832 17.1833 6.86999 17.1375L13.6533 13.9292C13.7908 13.8833 13.9283 13.7458 13.9742 13.6083L17.1825 6.825C17.32 6.55 17.2742 6.22917 17.045 6.04583C16.8617 5.81667 16.5408 5.77083 16.2658 5.90833ZM12.8742 12.7833L10.3533 10.2625L15.1658 7.97083L12.8742 12.7833Z" fill="#262626"/>
</g>
<defs>
<clipPath id="clip0_2_969">
<rect width="22" height="22" fill="white" transform="translate(0.59082 0.5)"/>
</clipPath>
</defs>
</svg>
