<svg width="20" height="21" viewBox="0 0 20 21" fill="none" xmlns="http://www.w3.org/2000/svg">
<path d="M8.00753 15.5C9.41272 15.4997 10.7774 15.0045 11.8843 14.0934L15.3645 17.7567L16.4839 16.5784L13.0037 12.915C13.8698 11.7497 14.3405 10.3129 14.3409 8.83335C14.3409 5.15752 11.4996 2.16669 8.00753 2.16669C4.51549 2.16669 1.67419 5.15752 1.67419 8.83335C1.67419 12.5092 4.51549 15.5 8.00753 15.5ZM8.00753 3.83335C10.6272 3.83335 12.7575 6.07585 12.7575 8.83335C12.7575 11.5909 10.6272 13.8334 8.00753 13.8334C5.3879 13.8334 3.25753 11.5909 3.25753 8.83335C3.25753 6.07585 5.3879 3.83335 8.00753 3.83335Z" fill="#8E8E8E"/>
</svg>
